<svg xmlns="http://www.w3.org/2000/svg" viewBox="0 0 455.43 512"><defs><style>.cls-1{fill:#fff;}</style></defs><title>IT_ADMINAsset 1</title><g id="Layer_2" data-name="Layer 2"><g id="Capa_1" data-name="Capa 1"><path class="cls-1" d="M391.55,264.43a18.07,18.07,0,1,0-36.14,0,127.7,127.7,0,0,1-255.4,0,18.07,18.07,0,0,0-36.14,0c0,83.73,62.65,154.21,145.77,163.24v48.19H144A18.07,18.07,0,0,0,144,512H311.44a18.07,18.07,0,0,0,0-36.14H245.78V427.67C328.91,418.64,391.55,348.16,391.55,264.43Z"/><path class="cls-1" d="M227.71,0A100.78,100.78,0,0,0,127.12,100.59V263.83c0,56,45.18,100.59,100.59,101.2a100.78,100.78,0,0,0,100.6-100.6V100.59A100.78,100.78,0,0,0,227.71,0Z"/><rect class="cls-1" x="182.71" y="-46.88" width="90" height="566.6" transform="translate(225.39 -91.82) rotate(43.52)"/></g></g></svg>