<?xml version="1.0"?>
<svg xmlns="http://www.w3.org/2000/svg" id="Capa_1" enable-background="new 0 0 512 512" height="512px" viewBox="0 0 512 512" width="512px"><g><g><g><g><path d="m211.71 178.917c-5.523 0-10 4.477-10 10v11.243c0 5.522 4.477 10 10 10s10-4.478 10-10v-11.243c0-5.522-4.477-10-10-10z" data-original="#000000" class="active-path" data-old_color="#000000" fill="#6ABF4B"/><path d="m300.29 210.16c5.523 0 10-4.478 10-10v-11.243c0-5.523-4.477-10-10-10s-10 4.477-10 10v11.243c0 5.523 4.477 10 10 10z" data-original="#000000" class="active-path" data-old_color="#000000" fill="#6ABF4B"/><path d="m281.645 246.527c-3.889-3.92-10.221-3.947-14.142-.057-6.343 6.293-16.664 6.293-23.007 0-3.922-3.891-10.254-3.865-14.142.057-3.89 3.921-3.864 10.253.056 14.143 7.055 6.998 16.322 10.498 25.589 10.498s18.534-3.5 25.589-10.498c3.922-3.89 3.947-10.222.057-14.143z" data-original="#000000" class="active-path" data-old_color="#000000" fill="#6ABF4B"/><path d="m327.907 333.038h-32.914v-19.895c8.913-1.485 23.33-4.425 37.892-9.65 42.265-15.168 51.136-37.326 51.136-53.244v-21.994c16.817-2.013 29.896-16.365 29.896-33.716 0-17.35-13.079-31.702-29.896-33.715v-150.824c0-5.523-4.477-10-10-10h-234.41c-5.523 0-10 4.477-10 10v150.668c-17.594 1.25-31.528 15.964-31.528 33.87 0 17.907 13.934 32.621 31.528 33.871v21.839c0 15.898 8.72 38.036 50.265 53.224 14.249 5.209 28.357 8.149 37.131 9.645v19.922s-4.322 0-4.947 0h-27.967c-40.704 0-75.042 28.997-81.649 68.948-1.565 9.467-2.326 16.529-2.326 21.591v78.422c0 5.522 4.477 10 10 10h100.355c5.523 0 10-4.478 10-10s-4.477-10-10-10h-90.355v-68.423c0-2.683.357-8.039 2.059-18.327 3.974-24.031 21.22-42.827 43.619-49.543v50.51c-12.971 4.223-22.372 16.43-22.372 30.792 0 17.85 14.522 32.371 32.372 32.371s32.372-14.522 32.372-32.371c0-14.361-9.401-26.569-22.372-30.792v-53.179h19.924v8.361c0 27.604 22.556 50.063 50.28 50.063 27.725 0 50.28-22.458 50.28-50.063v-8.361h17.4v62.98c-15.34 4.341-26.607 18.411-26.607 35.051v8.094c0 5.522 4.477 10 10 10s10-4.478 10-10v-8.094c0-9.061 7.45-16.433 16.607-16.433s16.607 7.372 16.607 16.433v8.094c0 5.522 4.477 10 10 10s10-4.478 10-10v-8.094c0-16.64-11.267-30.71-26.607-35.051v-61.011c23.62 6.023 42.021 25.317 46.143 50.242 1.702 10.288 2.059 15.645 2.059 18.327v68.424h-90.354c-5.523 0-10 4.478-10 10s4.477 10 10 10h100.354c5.523 0 10-4.478 10-10v-78.423c0-5.061-.761-12.124-2.326-21.591-6.607-39.951-40.945-68.948-81.649-68.948zm-178.296-313.038h214.41v118.51h-214.41zm26.184 429.38c-6.822 0-12.372-5.55-12.372-12.371 0-6.822 5.55-12.372 12.372-12.372s12.372 5.55 12.372 12.372c0 6.821-5.55 12.371-12.372 12.371zm110.485-87.981c0 16.576-13.583 30.063-30.28 30.063s-30.28-13.486-30.28-30.063v-8.361h1.287c5.523 0 10-4.478 10-10v-38.556c0-5.093-3.833-9.373-8.895-9.938-21.834-2.441-78.501-15.158-78.501-44.296v-31.753c0-5.522-4.477-10-10-10h-7.571c-7.696 0-13.957-6.261-13.957-13.957 0-7.695 6.261-13.956 13.957-13.956h7.571c5.523 0 10-4.477 10-10v-12.072h214.41v12.072c0 5.523 4.477 10 10 10h5.939c7.696 0 13.957 6.261 13.957 13.956 0 7.696-6.261 13.957-13.957 13.957h-5.939c-5.523 0-10 4.478-10 10v31.753c0 28.981-59.329 42.013-80.107 44.293-5.075.551-8.921 4.836-8.921 9.941v38.556c0 5.522 4.477 10 10 10h1.287z" data-original="#000000" class="active-path" data-old_color="#000000" fill="#6ABF4B"/><path d="m265.44 498.18c-1.611-3.932-5.715-6.455-9.949-6.148-4.155.301-7.749 3.222-8.896 7.225-1.146 3.998.382 8.453 3.783 10.868 3.373 2.395 7.923 2.464 11.372.185 3.925-2.594 5.496-7.791 3.69-12.13z" data-original="#000000" class="active-path" data-old_color="#000000" fill="#6ABF4B"/><path d="m285.348 69.255h-18.532v-18.378c0-5.522-4.477-10-10-10s-10 4.478-10 10v18.378h-18.532c-5.523 0-10 4.478-10 10s4.477 10 10 10h18.532v18.377c0 5.522 4.477 10 10 10s10-4.478 10-10v-18.377h18.532c5.523 0 10-4.478 10-10 0-5.523-4.477-10-10-10z" data-original="#000000" class="active-path" data-old_color="#000000" fill="#6ABF4B"/></g></g></g></g> </svg>
