<svg xmlns="http://www.w3.org/2000/svg" viewBox="0 0 551.65 472.84"><defs><style>.cls-1{fill:#fff;}</style></defs><title>IT_ADMINAsset 2</title><g id="Layer_2" data-name="Layer 2"><g id="Capa_1" data-name="Capa 1"><path class="cls-1" d="M138.24,396H350.5a54.86,54.86,0,0,0,54.86-54.86V297.58l119.83,60a18.29,18.29,0,0,0,26.46-16.46V121.71a18.29,18.29,0,0,0-26.46-16.37L405.36,165.26V121.71A54.86,54.86,0,0,0,350.5,66.85H94.5a54.86,54.86,0,0,0-54.85,54.86V341.13A54.86,54.86,0,0,0,94.5,396h43.74M295.48,236.42a73.14,73.14,0,0,1-73,68.14m0,0a73.14,73.14,0,1,1,73.15-73.14c0,1.68-.06,3.35-.17,5"/><rect class="cls-1" x="123.65" y="131.42" width="217" height="210"/><rect class="cls-1" x="182.71" y="-46.88" width="90" height="566.6" transform="translate(225.39 -91.82) rotate(43.52)"/></g></g></svg>