<svg xmlns="http://www.w3.org/2000/svg" viewBox="0 0 512 329.14"><defs><style>.cls-1{fill:#fff;}</style></defs><title>IT_ADMINAsset 1</title><g id="Layer_2" data-name="Layer 2"><g id="Capa_1" data-name="Capa 1"><path class="cls-1" d="M503.33,39.3a18.27,18.27,0,0,0-17.79-.81L365.71,98.41V54.86A54.86,54.86,0,0,0,310.86,0h-256A54.86,54.86,0,0,0,0,54.86V274.29a54.86,54.86,0,0,0,54.86,54.85h256a54.85,54.85,0,0,0,54.85-54.85V230.73l119.83,60A18.29,18.29,0,0,0,512,274.29V54.86A18.29,18.29,0,0,0,503.33,39.3ZM182.86,237.71A73.14,73.14,0,1,1,256,164.57,73.14,73.14,0,0,1,182.86,237.71Z"/><rect class="cls-1" x="84" y="64.57" width="217" height="210"/></g></g></svg>